<svg xmlns="http://www.w3.org/2000/svg">
  <defs>
    <!-- Dashboard Icon -->
    <symbol id="icon-dashboard" viewBox="0 0 24 24">
      <rect width="7" height="9" x="3" y="3" rx="1.5"/>
      <rect width="7" height="5" x="14" y="3" rx="1.5"/>
      <rect width="7" height="9" x="14" y="12" rx="1.5"/>
      <rect width="7" height="5" x="3" y="16" rx="1.5"/>
    </symbol>
    
    <!-- Network Icon -->
    <symbol id="icon-network" viewBox="0 0 24 24">
      <circle cx="12" cy="12" r="3"/>
      <circle cx="19" cy="5" r="2"/>
      <circle cx="5" cy="19" r="2"/>
      <circle cx="19" cy="19" r="2"/>
      <circle cx="5" cy="5" r="2"/>
      <line x1="9.5" y1="9.5" x2="6.5" y2="6.5"/>
      <line x1="14.5" y1="9.5" x2="17.5" y2="6.5"/>
      <line x1="14.5" y1="14.5" x2="17.5" y2="17.5"/>
      <line x1="9.5" y1="14.5" x2="6.5" y2="17.5"/>
    </symbol>
    
    <!-- Security Icon -->
    <symbol id="icon-security" viewBox="0 0 24 24">
      <path d="M12 22s8-4 8-10V5l-8-3-8 3v7c0 6 8 10 8 10"/>
      <path d="m9 12 2 2 4-4"/>
    </symbol>
    
    <!-- Database Icon -->
    <symbol id="icon-database" viewBox="0 0 24 24">
      <ellipse cx="12" cy="5" rx="9" ry="3"/>
      <path d="M3 5V19A9 3 0 0 0 21 19V5"/>
      <path d="M3 12A9 3 0 0 0 21 12"/>
    </symbol>
    
    <!-- Collapse Icon -->
    <symbol id="icon-collapse" viewBox="0 0 24 24">
      <rect width="18" height="18" x="3" y="3" rx="2"/>
      <path d="M9 3v18"/>
      <path d="m14 9 3 3-3 3"/>
    </symbol>
    
    <!-- More Options Icon -->
    <symbol id="icon-more" viewBox="0 0 24 24">
      <circle cx="12" cy="12" r="1"/>
      <circle cx="19" cy="12" r="1"/>
      <circle cx="5" cy="12" r="1"/>
    </symbol>
    
    <!-- Star/Logo Icon -->
    <symbol id="icon-star" viewBox="0 0 24 24">
      <polygon points="12 2 15.09 8.26 22 9.27 17 14.14 18.18 21.02 12 17.77 5.82 21.02 7 14.14 2 9.27 8.91 8.26 12 2"/>
    </symbol>
  </defs>
</svg>
